<svg width="100%" height="100%" viewBox="0 0 24 24" version="1.1" xmlns="http://www.w3.org/2000/svg" xmlns:xlink="http://www.w3.org/1999/xlink" xml:space="preserve" xmlns:serif="http://www.serif.com/" style="fill-rule:evenodd;clip-rule:evenodd;stroke-linejoin:round;stroke-miterlimit:2;">
    <g>
        <g transform="matrix(0.755278,-0.428096,0.390687,0.689279,-2.63303,6.91543)">
            <path d="M23.077,7.701C23.077,4.79 20.92,2.426 18.263,2.426L7.9,2.426C5.243,2.426 3.086,4.79 3.086,7.701L3.086,18.251C3.086,21.162 5.243,23.525 7.9,23.525L18.263,23.525C20.92,23.525 23.077,21.162 23.077,18.251L23.077,7.701Z" style="fill:rgb(160,195,255);"/>
        </g>
        <g transform="matrix(0.714934,-0.405229,0.377461,0.665945,-3.35785,10.7696)">
            <path d="M23.077,7.701C23.077,4.79 20.875,2.426 18.164,2.426L7.999,2.426C5.287,2.426 3.086,4.79 3.086,7.701L3.086,18.251C3.086,21.162 5.287,23.525 7.999,23.525L18.164,23.525C20.875,23.525 23.077,21.162 23.077,18.251L23.077,7.701Z" style="fill:rgb(228,238,255);"/>
        </g>
        <g transform="matrix(0.850303,-0.48415,0.4948,0.869007,-1.9925,14.8481)">
            <rect x="3.349" y="2.11" width="17.037" height="0.633" style="fill:rgb(1,93,254);"/>
        </g>
        <g transform="matrix(0.9,0,0,0.958333,1.05758,0.432967)">
            <ellipse cx="8.202" cy="20.519" rx="1.319" ry="1.266" style="fill:rgb(1,93,254);"/>
        </g>
        <g transform="matrix(0.431422,-0.26298,0.552721,0.826919,-4.55055,6.50818)">
            <path d="M19.385,17.921C19.385,17.753 19.117,17.618 18.788,17.618L10.856,17.618C10.527,17.618 10.259,17.753 10.259,17.921L10.259,18.527C10.259,18.695 10.527,18.831 10.856,18.831L18.788,18.831C19.117,18.831 19.385,18.695 19.385,18.527L19.385,17.921Z" style="fill:rgb(1,93,254);"/>
        </g>
    </g>
</svg>