<svg width="100%" height="100%" viewBox="0 0 1280 960" version="1.1" xmlns="http://www.w3.org/2000/svg" xmlns:xlink="http://www.w3.org/1999/xlink" xml:space="preserve" xmlns:serif="http://www.serif.com/" style="fill-rule:evenodd;clip-rule:evenodd;stroke-linejoin:round;stroke-miterlimit:2;">
    <g>
        <path d="M357.275,90.198C357.275,40.416 316.858,0 267.077,0L86.681,0C36.9,0 -3.516,40.416 -3.516,90.198L-3.516,270.593C-3.516,320.375 36.9,360.791 86.681,360.791L267.077,360.791C316.858,360.791 357.275,320.375 357.275,270.593L357.275,90.198Z" style="fill:rgb(243,255,254);"/>
        <g transform="matrix(1,0,0,1,238.418,263.736)">
            <path d="M357.275,90.198C357.275,40.416 316.858,0 267.077,0L86.681,0C36.9,0 -3.516,40.416 -3.516,90.198L-3.516,270.593C-3.516,320.375 36.9,360.791 86.681,360.791L267.077,360.791C316.858,360.791 357.275,320.375 357.275,270.593L357.275,90.198Z" style="fill:rgb(243,255,254);"/>
        </g>
        <g transform="matrix(1,0,0,1,6.32967,540.132)">
            <path d="M357.275,90.198C357.275,40.416 316.858,0 267.077,0L86.681,0C36.9,0 -3.516,40.416 -3.516,90.198L-3.516,270.593C-3.516,320.375 36.9,360.791 86.681,360.791L267.077,360.791C316.858,360.791 357.275,320.375 357.275,270.593L357.275,90.198Z" style="fill:rgb(243,255,254);"/>
        </g>
        <g transform="matrix(1,0,0,1,485.275,538.022)">
            <path d="M357.275,90.198C357.275,40.416 316.858,0 267.077,0L86.681,0C36.9,0 -3.516,40.416 -3.516,90.198L-3.516,270.593C-3.516,320.375 36.9,360.791 86.681,360.791L267.077,360.791C316.858,360.791 357.275,320.375 357.275,270.593L357.275,90.198Z" style="fill:rgb(243,255,254);"/>
        </g>
    </g>
</svg>
