<svg width="100%" height="100%" viewBox="0 0 24 24" version="1.1" xmlns="http://www.w3.org/2000/svg" xmlns:xlink="http://www.w3.org/1999/xlink" xml:space="preserve" xmlns:serif="http://www.serif.com/" style="fill-rule:evenodd;clip-rule:evenodd;stroke-linecap:round;stroke-linejoin:round;stroke-miterlimit:1.5;">
    <g>
        <g>
            <g transform="matrix(3.85874,0,0,4.59658,-14.2959,-59.1994)">
                <path d="M4.016,17.988L4.016,13.999C4.142,13.463 4.486,13.144 5.01,13.006L9,12.989C8.454,13.175 8.111,13.503 8.006,13.999L8.023,17.972L7.013,16.996L6.003,17.972L5.01,17.012L4.016,17.988Z" style="fill:rgb(196,201,213);stroke:rgb(32,41,81);stroke-width:0.34px;"/>
            </g>
            <g transform="matrix(3.85874,0,0,4.59658,-13.9126,-58.9711)">
                <path d="M8.9,12.939C9.189,12.968 9.423,13.087 9.579,13.337C9.767,13.727 9.789,14.139 9.579,14.529C9.478,14.765 9.294,14.916 9.016,14.976L7.924,14.959" style="fill:none;stroke:rgb(32,41,81);stroke-width:0.34px;"/>
            </g>
            <g transform="matrix(2.75732,0,0,4.59658,-7.83178,-58.9711)">
                <path d="M4.546,15.472L6.897,15.456" style="fill:none;stroke:rgb(32,41,81);stroke-width:0.38px;"/>
            </g>
            <g transform="matrix(3.85874,0,0,4.59658,-13.9126,-58.9711)">
                <path d="M4.513,14.661L6.93,14.645" style="fill:none;stroke:rgb(32,41,81);stroke-width:0.34px;"/>
            </g>
        </g>
    </g>
</svg>
